<svg width="114" height="122" viewBox="0 0 114 122" fill="none" xmlns="http://www.w3.org/2000/svg">
<path fill-rule="evenodd" clip-rule="evenodd" d="M90.8219 31.9826C86.7797 33.1432 75.2285 32.5907 60.3104 29.2681C46.3007 26.1458 36.0178 22.0666 32.1536 19.256C32.506 18.366 32.8805 17.5021 33.3032 16.6677C33.5593 16.156 33.8336 15.6628 34.1192 15.1732C40.5863 3.98916 53.7877 -2.22217 67.063 0.733265C80.346 3.69606 89.6499 14.9283 90.7552 27.7997C90.8145 28.3634 90.8515 28.927 90.8627 29.5018C90.8886 30.3251 90.8665 31.152 90.8219 31.9826ZM84.0357 23.2718C84.2918 20.702 82.7416 18.4362 80.5686 18.2212C78.3954 18.0062 76.4265 19.916 76.1705 22.4857C75.9146 25.0591 77.4684 27.3213 79.6414 27.5363C81.8108 27.7587 83.7797 25.8415 84.0357 23.2718ZM67.2337 21.4883C67.7935 18.9666 66.2065 16.4674 63.6811 15.9037C61.1595 15.34 58.6567 16.9309 58.0966 19.4525C57.5329 21.9779 59.1237 24.4772 61.6453 25.0408C64.1707 25.6007 66.67 24.0137 67.2337 21.4883ZM47.4095 10.8306C45.3514 10.1039 42.9855 11.4908 42.1252 13.9308C41.2648 16.3634 42.2327 18.9296 44.291 19.6563C46.3527 20.383 48.7186 18.9961 49.5789 16.5561C50.4392 14.1235 49.4676 11.5573 47.4095 10.8306ZM97.6289 37.4226C96.8415 37.0701 96.0511 36.7364 95.2574 36.4013L95.0592 36.3176C94.7255 36.5623 94.3434 36.7961 93.8837 37.0073C93.6834 37.1036 93.3941 37.2223 93.0345 37.341C87.5686 39.2469 74.2263 38.2903 59.0521 34.9084C43.8779 31.5264 31.3885 26.7206 27.2391 22.6637C27.0091 22.456 26.7756 22.2037 26.5715 21.9517C26.3083 21.6439 26.108 21.3399 25.9335 21.0359C25.6355 21.0281 25.3381 21.0171 25.0411 21.0061L25.0406 21.0061C24.6283 20.9909 24.2167 20.9757 23.805 20.9692C20.5232 20.9136 4.66309 21.7293 3.96226 24.8704C2.96217 29.3639 15.5851 33.7452 20.3447 35.3972L20.3452 35.3974C20.9154 35.5953 21.3727 35.754 21.6802 35.8691C33.1497 40.1336 45.0458 43.3078 56.9753 45.9666C68.9121 48.6292 81.0305 50.8095 93.227 51.8146C93.5484 51.8411 94.0185 51.8908 94.6037 51.9526C99.589 52.4794 112.932 53.8892 113.938 49.3858C114.952 44.8265 103.285 39.8444 98.8034 37.9304L98.8033 37.9304C98.32 37.724 97.9202 37.5533 97.6289 37.4226ZM54.5098 89.6699C57.2814 87.938 59.3937 85.1486 60.1874 81.7109C60.981 78.2731 60.3054 74.8401 58.5738 72.0669C56.8403 69.2949 54.0492 67.1823 50.6131 66.389C47.1754 65.5954 43.7424 66.271 40.9691 68.0026C38.1971 69.7361 36.0848 72.5255 35.2912 75.9632C34.4975 79.401 35.1732 82.834 36.9051 85.6056C37.2198 86.1091 37.5385 86.6716 37.872 87.2603C38.9883 89.2303 40.2709 91.494 42.1245 92.8252C41.8904 92.9723 41.6153 93.1145 41.3122 93.2713C39.8672 94.0186 37.7861 95.0949 36.4765 98.5827C34.9073 102.758 34.6184 103.465 34.122 104.681C34.0006 104.978 33.8667 105.306 33.6987 105.723C32.8177 107.903 34.6874 109.589 36.0987 107.28L38.4514 101.989L37.4516 106.319L35.538 116.703C35.2938 117.338 35.6078 118.051 36.2434 118.299C36.3012 118.319 36.3564 118.335 36.4141 118.348C37.0014 118.484 37.6133 118.17 37.838 117.591L41.0464 107.827L39.9457 118.078C39.8939 118.697 40.3063 119.247 40.8936 119.383C40.9513 119.396 41.0096 119.406 41.0687 119.413C41.7487 119.469 42.3452 118.966 42.4022 118.288L44.9383 108.048L45.9382 103.717L45.7317 109.504C45.9896 112.198 48.4074 111.502 48.573 109.157C48.6051 108.701 48.6287 108.343 48.6502 108.018C48.736 106.718 48.7871 105.942 49.2063 101.522C49.557 97.8105 48.1578 95.9311 47.186 94.6257L47.1859 94.6256C46.9827 94.3526 46.7981 94.1047 46.6522 93.8704C48.9034 93.4867 51.0491 92.014 52.9163 90.7326L52.9164 90.7325C53.4739 90.3499 54.0066 89.9843 54.5098 89.6699ZM47.7254 86.9219C48.1303 87.0154 48.3826 87.4192 48.2891 87.8241C48.196 88.2274 47.7918 88.4813 47.3869 88.3878C46.982 88.2943 46.7301 87.8889 46.8232 87.4856C46.9167 87.0807 47.3205 86.8284 47.7254 86.9219ZM44.7714 87.0119C44.6783 87.4153 44.2741 87.6692 43.8692 87.5757C43.4643 87.4822 43.2123 87.0768 43.3054 86.6735C43.3989 86.2686 43.8027 86.0163 44.2076 86.1098C44.6125 86.2032 44.8648 86.607 44.7714 87.0119ZM38.5782 80.557C37.4934 79.2395 37.3342 77.3147 37.3717 75.9917C37.3957 75.2303 37.677 74.8368 38.2168 74.8281C39.94 74.8046 41.8414 75.6886 42.9972 76.8303C44.4207 78.236 44.963 80.0639 44.8849 82.0889C44.8539 82.8875 44.4089 83.1573 43.9397 83.0945C41.8794 82.8178 39.7723 82.0077 38.5782 80.557ZM47.1148 91.1874L42.8849 90.2109C42.5281 90.1285 42.3048 89.7735 42.3876 89.415C42.4696 89.0597 42.8265 88.8352 43.1835 88.9176L47.4134 89.8942C47.7719 89.977 47.9928 90.3348 47.9107 90.6901C47.8279 91.0486 47.4733 91.2702 47.1148 91.1874ZM49.2881 84.3293C48.8388 84.18 48.5571 83.7425 48.8794 83.0111C49.6969 81.1567 50.9855 79.7516 52.8796 79.1118C54.4205 78.5927 56.517 78.6317 58.0539 79.4079C58.5352 79.6521 58.6172 80.1296 58.3034 80.8242C57.7586 82.0302 56.7718 83.6904 55.2192 84.3989C53.5102 85.1793 51.2611 84.9837 49.2881 84.3293ZM2.79998 104.112C2.44399 104.034 2.09535 103.897 1.76903 103.704C0.0631201 102.699 -0.507889 100.511 0.493395 98.8088L30.0148 48.5844C31.0123 46.8823 33.2075 46.3074 34.9097 47.3125C36.6118 48.3138 37.1828 50.5017 36.1815 52.2074L6.6639 102.432C5.85557 103.807 4.27592 104.441 2.79998 104.112ZM77.6953 118.27C77.8436 119.853 79.0041 121.099 80.48 121.425C80.8322 121.507 81.2067 121.529 81.5888 121.496C83.5541 121.318 85.0004 119.571 84.8186 117.606L79.4268 59.5979C79.2414 57.6326 77.4949 56.1898 75.5332 56.3716C73.5643 56.5534 72.1216 58.2926 72.3034 60.2617L77.6953 118.27Z" fill="white"/>
</svg>
