<svg width="75" height="75" viewBox="0 0 75 75" fill="none" xmlns="http://www.w3.org/2000/svg">
<mask id="mask0_44_44" style="mask-type:luminance" maskUnits="userSpaceOnUse" x="0" y="0" width="75" height="75">
<path d="M37.5 6.75583C47.5131 6.75583 48.6991 6.79333 52.6537 6.97395C56.3103 7.14076 58.2958 7.751 59.6171 8.26493C61.3683 8.94567 62.617 9.75722 63.9293 11.0695C65.2413 12.3818 66.0546 13.6308 66.7339 15.3817C67.2478 16.703 67.858 18.6885 68.0249 22.3451C68.2052 26.2997 68.243 27.4854 68.243 37.4988C68.243 47.5122 68.2055 48.6976 68.0249 52.6522C67.858 56.3088 67.2478 58.2943 66.7339 59.6156C66.0531 61.3668 65.2416 62.6155 63.9293 63.9278C62.617 65.2398 61.368 66.0531 59.6171 66.7324C58.2958 67.2463 56.3103 67.8565 52.6537 68.0234C48.6994 68.2037 47.5134 68.2415 37.5 68.2415C27.4866 68.2415 26.3012 68.204 22.3466 68.0234C18.69 67.8565 16.7045 67.2463 15.3832 66.7324C13.632 66.0513 12.3833 65.2398 11.071 63.9278C9.75902 62.6155 8.94567 61.3665 8.26643 59.6156C7.7522 58.2943 7.14226 56.3088 6.97545 52.6522C6.79513 48.6979 6.75733 47.5119 6.75733 37.4988C6.75733 27.4857 6.79483 26.3 6.97545 22.3451C7.14226 18.6885 7.7525 16.703 8.26643 15.3817C8.94717 13.6305 9.75872 12.3818 11.071 11.0695C12.3833 9.75752 13.6323 8.94417 15.3832 8.26493C16.7045 7.751 18.69 7.14076 22.3466 6.97395C26.3009 6.79513 27.4869 6.75583 37.5 6.75583ZM37.5 0C27.3155 0 26.0381 0.0435028 22.0385 0.225314C18.0465 0.407126 15.3214 1.04167 12.9362 1.96873C10.4698 2.92759 8.37924 4.20987 6.2944 6.2944C4.20987 8.37924 2.92639 10.4698 1.96873 12.9362C1.04137 15.3217 0.407126 18.048 0.225314 22.0385C0.0435028 26.0384 0 27.3158 0 37.5C0 47.6842 0.0435028 48.9619 0.225314 52.9615C0.407126 56.9535 1.04167 59.6786 1.96873 62.0638C2.92759 64.5302 4.20987 66.6208 6.2944 68.7056C8.37924 70.7904 10.4713 72.0724 12.9362 73.0313C15.3217 73.9586 18.048 74.5929 22.0385 74.7747C26.0381 74.9565 27.3155 75 37.5 75C47.6845 75 48.9619 74.9565 52.9615 74.7747C56.9535 74.5929 59.6786 73.9583 62.0638 73.0313C64.5302 72.0721 66.6208 70.7901 68.7056 68.7056C70.7904 66.6208 72.0724 64.5287 73.0313 62.0638C73.9586 59.6786 74.5929 56.952 74.7747 52.9615C74.9565 48.9619 75 47.6845 75 37.5C75 27.3155 74.9565 26.0381 74.7747 22.0385C74.5929 18.0465 73.9583 15.3214 73.0313 12.9362C72.0721 10.4698 70.7901 8.37924 68.7056 6.2944C66.6208 4.20987 64.5287 2.92759 62.0638 1.96873C59.6786 1.04137 56.952 0.407126 52.9615 0.225314C48.9622 0.0435028 47.6845 0 37.5 0ZM37.5 18.2436C26.8646 18.2436 18.2436 26.8646 18.2436 37.5C18.2436 48.1354 26.8646 56.7567 37.5 56.7567C48.1354 56.7567 56.7567 48.1354 56.7567 37.5C56.7567 26.8646 48.1354 18.2436 37.5 18.2436ZM37.5 50.0009C30.5969 50.0009 24.9994 44.4052 24.9994 37.5003C24.9994 30.5954 30.5969 24.9997 37.5 24.9997C44.4031 24.9997 50.0006 30.5954 50.0006 37.5003C50.0006 44.4052 44.4031 50.0009 37.5 50.0009ZM57.5173 12.983C55.0313 12.983 53.0173 14.9971 53.0173 17.483C53.0173 19.969 55.0313 21.9833 57.5173 21.9833C60.0032 21.9833 62.0176 19.969 62.0176 17.483C62.0176 14.9971 60.0035 12.983 57.5173 12.983Z" fill="white"/>
</mask>
<g mask="url(#mask0_44_44)">
<rect x="-21.0996" y="-21.0986" width="117.007" height="117.007" fill="white"/>
</g>
</svg>
