<svg width="79" height="79" viewBox="0 0 79 79" fill="none" xmlns="http://www.w3.org/2000/svg">
<g clip-path="url(#clip0_20_180)">
<path d="M26.4732 61.8715L22.4615 57.8574L21.1427 56.5386L17.131 52.5269L8.62305 57.5778L12.6371 61.5918L17.4082 66.3631L21.4224 70.3772L26.4732 61.8715Z" fill="white"/>
<path d="M54.1938 65.8257C52.5183 55.724 50.6835 43.4526 61.9207 32.2178C65.3297 28.8088 67.6249 26.5136 70.149 23.9895L55.0111 8.85156C52.487 11.3757 50.1918 13.6709 46.7851 17.0799C35.5455 28.317 23.2766 26.48 13.1749 24.8068C4.60895 23.3891 -1.83773 30.2603 0.474253 32.5747L18.4353 50.5335L29.2699 39.6989C32.0352 36.9311 36.5364 36.9311 39.304 39.6989C42.0693 42.4642 42.0693 46.9654 39.304 49.7307L28.4671 60.5676L46.4259 78.5263C48.7379 80.8383 55.6113 74.3916 54.1938 65.8257ZM16.7044 40.7765L10.8845 34.9566L13.4931 32.348L19.3105 38.168L16.7044 40.7765ZM51.7178 18.4516C53.2512 16.9207 56.4697 17.6536 58.9094 20.091C61.3468 22.5309 62.0797 25.7494 60.5488 27.2803C59.0156 28.8137 50.1869 19.985 51.7178 18.4516Z" fill="white"/>
<path d="M26.8611 55.7505C25.8654 56.7487 24.2476 56.7487 23.2496 55.7505C22.2514 54.7524 22.2514 53.1371 23.2496 52.1391L32.4809 42.9078C33.4765 41.9096 35.0943 41.9096 36.0923 42.9078C37.0905 43.9059 37.0905 45.5236 36.0923 46.5193L26.8611 55.7505Z" fill="white"/>
<path d="M72.9572 21.1807C73.4684 20.6695 74.0012 20.1392 74.5629 19.5751C78.5528 15.5852 81.0072 6.35372 76.8267 2.17336C72.6462 -2.00701 63.4149 0.447084 59.425 4.43705C58.8608 5.00116 58.3304 5.53163 57.8193 6.04266L72.9572 21.1807Z" fill="white"/>
</g>
<defs>
<clipPath id="clip0_20_180">
<rect width="79" height="79" fill="white"/>
</clipPath>
</defs>
</svg>
