<svg width="101" height="101" viewBox="0 0 101 101" fill="none" xmlns="http://www.w3.org/2000/svg">
<path d="M69.4222 25.1936L47.3866 18.875L43.2158 24.0965L70.1901 31.8331L69.4222 25.1936Z" fill="white"/>
<path d="M36.513 98.3734C38.2271 98.865 40.0716 98.5089 41.4796 97.4147L50.5331 90.3745C54.3234 87.426 57.0771 83.3499 58.4024 78.7346L62.2065 65.4744L63.5653 60.7325L65.1424 55.2293L67.8855 56.0169L66.6639 60.2739L73.5555 59.2496C76.8196 58.7656 79.4988 56.4185 80.4083 53.2467L84.7536 38.0967C85.0671 37.0035 84.7862 35.8296 84.014 35C83.2437 34.171 82.0912 33.8024 80.9801 34.0356L68.8606 36.5678L41.8342 28.8154L32.8978 20.2474C32.0796 19.4591 30.9088 19.1643 29.8133 19.4592C28.7199 19.7531 27.858 20.5992 27.5455 21.6919L23.2033 36.842C22.2936 40.0138 23.3214 43.4229 25.8313 45.5654L31.1336 50.0844L32.3541 45.8279L35.0984 46.6148L33.5208 52.1197L32.1618 56.8587L28.3583 70.12C27.0342 74.7376 27.2118 79.6553 28.8653 84.1619L32.8108 94.9295C33.424 96.6036 34.7992 97.8831 36.513 98.3734ZM36.5985 68.0471C37.8587 63.6519 42.4432 61.1107 46.8373 62.3716C51.2319 63.6308 53.7731 68.2153 52.5145 72.6109C51.2548 77.0073 46.6691 79.5463 42.2739 78.2859C37.8798 77.0249 35.3388 72.4433 36.5985 68.0471Z" fill="white"/>
</svg>
